<mxfile host="app.diagrams.net" modified="2023-07-20T12:32:58.326Z" agent="Mozilla/5.0 (Windows NT 10.0; Win64; x64) AppleWebKit/537.36 (KHTML, like Gecko) Chrome/114.0.0.0 Safari/537.36" version="21.6.2" etag="iOehy0BKeyyXJgmt_KVE" type="github">
  <diagram name="Sivu-1" id="SL7wxhg91M-T2GyFzLds">
    <mxGraphModel>
      <root>
        <mxCell id="0" />
        <mxCell id="1" parent="0" />
      </root>
    </mxGraphModel>
  </diagram>
</mxfile>
